<?xml version="1.0" encoding="UTF-8" standalone="no"?>
<!-- Created with Inkscape (http://www.inkscape.org/) -->

<svg
   width="210mm"
   height="297mm"
   viewBox="0 0 210 297"
   version="1.1"
   id="svg1517"
   inkscape:version="1.1.1 (3bf5ae0d25, 2021-09-20)"
   sodipodi:docname="favicon-sailboat-only.svg"
   xmlns:inkscape="http://www.inkscape.org/namespaces/inkscape"
   xmlns:sodipodi="http://sodipodi.sourceforge.net/DTD/sodipodi-0.dtd"
   xmlns="http://www.w3.org/2000/svg"
   xmlns:svg="http://www.w3.org/2000/svg">
  <sodipodi:namedview
     id="namedview1519"
     pagecolor="#ffffff"
     bordercolor="#666666"
     borderopacity="1.0"
     inkscape:pageshadow="2"
     inkscape:pageopacity="0.0"
     inkscape:pagecheckerboard="0"
     inkscape:document-units="mm"
     showgrid="false"
     inkscape:zoom="0.73406285"
     inkscape:cx="374.62732"
     inkscape:cy="457.04533"
     inkscape:window-width="1920"
     inkscape:window-height="1009"
     inkscape:window-x="-8"
     inkscape:window-y="-8"
     inkscape:window-maximized="1"
     inkscape:current-layer="layer1" />
  <defs
     id="defs1514">
    <inkscape:path-effect
       effect="bspline"
       id="path-effect2298"
       is_visible="true"
       lpeversion="1"
       weight="33.333333"
       steps="2"
       helper_size="0"
       apply_no_weight="true"
       apply_with_weight="true"
       only_selected="false" />
    <inkscape:path-effect
       effect="bspline"
       id="path-effect2294"
       is_visible="true"
       lpeversion="1"
       weight="33.333333"
       steps="2"
       helper_size="0"
       apply_no_weight="true"
       apply_with_weight="true"
       only_selected="false" />
    <inkscape:path-effect
       effect="bspline"
       id="path-effect2290"
       is_visible="true"
       lpeversion="1"
       weight="33.333333"
       steps="2"
       helper_size="0"
       apply_no_weight="true"
       apply_with_weight="true"
       only_selected="false" />
    <inkscape:path-effect
       effect="bspline"
       id="path-effect2286"
       is_visible="true"
       lpeversion="1"
       weight="33.333333"
       steps="2"
       helper_size="0"
       apply_no_weight="true"
       apply_with_weight="true"
       only_selected="false" />
    <inkscape:path-effect
       effect="bspline"
       id="path-effect2282"
       is_visible="true"
       lpeversion="1"
       weight="33.333333"
       steps="2"
       helper_size="0"
       apply_no_weight="true"
       apply_with_weight="true"
       only_selected="false" />
    <inkscape:path-effect
       effect="bspline"
       id="path-effect2084"
       is_visible="true"
       lpeversion="1"
       weight="33.333333"
       steps="2"
       helper_size="0"
       apply_no_weight="true"
       apply_with_weight="true"
       only_selected="false" />
    <inkscape:path-effect
       effect="bspline"
       id="path-effect2080"
       is_visible="true"
       lpeversion="1"
       weight="33.333333"
       steps="2"
       helper_size="0"
       apply_no_weight="true"
       apply_with_weight="true"
       only_selected="false" />
    <inkscape:path-effect
       effect="bspline"
       id="path-effect2076"
       is_visible="true"
       lpeversion="1"
       weight="33.333333"
       steps="2"
       helper_size="0"
       apply_no_weight="true"
       apply_with_weight="true"
       only_selected="false" />
    <inkscape:path-effect
       effect="bspline"
       id="path-effect1959"
       is_visible="true"
       lpeversion="1"
       weight="33.333333"
       steps="2"
       helper_size="0"
       apply_no_weight="true"
       apply_with_weight="true"
       only_selected="false" />
    <inkscape:path-effect
       effect="bspline"
       id="path-effect1955"
       is_visible="true"
       lpeversion="1"
       weight="33.333333"
       steps="2"
       helper_size="0"
       apply_no_weight="true"
       apply_with_weight="true"
       only_selected="false" />
    <inkscape:path-effect
       effect="bspline"
       id="path-effect1556"
       is_visible="true"
       lpeversion="1"
       weight="33.333333"
       steps="2"
       helper_size="0"
       apply_no_weight="true"
       apply_with_weight="true"
       only_selected="false" />
  </defs>
  <g
     inkscape:label="Layer 1"
     inkscape:groupmode="layer"
     id="layer1">
    <path
       id="path2296"
       style="fill:none;stroke:#000000;stroke-width:0.264583px;stroke-linecap:butt;stroke-linejoin:miter;stroke-opacity:1"
       inkscape:path-effect="#path-effect2298"
       inkscape:original-d="m 91.190536,144.53519 c -0.0148,1.12663 -0.0598,2.22296 -0.0901,3.33404 m 16.129544,12.34495 c -0.84076,0.2706 -1.68178,0.54093 -2.52306,0.811 m -33.700855,-1.62197 c 1.081577,0.27059 2.162886,0.54092 3.243932,0.81098 m -0.360434,-15.679 c 1.472049,-0.0598 2.943831,-0.11988 4.41535,-0.18022 0.841301,0.48086 1.682303,0.96143 2.523059,1.44175 2.493336,-0.48033 4.986308,-0.9609 7.479064,-1.44175 M 87.9466,141.65169 c -0.270063,0.96143 -0.54039,1.9226 -0.810982,2.8835 1.35193,2.6e-4 2.703538,2.6e-4 4.054918,0 M 69.3841,148.77032 c -0.360172,0.81125 -0.720608,1.62223 -1.08131,2.43295 -0.08985,0.69112 -0.179953,1.38194 -0.270327,2.07251 0.09037,0.66108 0.180483,1.32187 0.270327,1.98241 0.390745,0.87133 0.781212,1.74237 1.171419,2.61316 0.240562,0.33068 0.480849,0.66107 0.720873,0.9912 0.2706,0.18049 0.540923,0.36071 0.810985,0.54066 m 38.476643,1.71208 c -2.43269,-0.0598 -4.86563,-0.11989 -7.29885,-0.18022 -1.50159,0.15045 -3.003374,0.30063 -4.505464,0.45054 -2.22247,0.0904 -4.44512,0.18049 -6.66808,0.27033 0.24056,-0.42025 0.48085,-0.84076 0.72087,-1.26153 2.7e-4,-0.51036 2.7e-4,-1.02097 0,-1.53186 -0.87081,0.0603 -1.74184,0.12041 -2.61316,0.18022 -1.651777,0.0603 -3.303746,0.12041 -4.956013,0.18022 -1.591696,0.12041 -3.183594,0.24056 -4.77579,0.36044 -1.111104,0.12041 -2.222428,0.24055 -3.334041,0.36043 -0.600474,0.0904 -1.20119,0.18049 -1.802183,0.27033 -0.960919,0.2706 -1.922065,0.54092 -2.883495,0.81099 -0.450292,0.18048 -0.900827,0.3607 -1.35164,0.54065 M 69.3841,148.77032 c 1.712341,0.21052 3.424415,0.42077 5.136227,0.63077 0.721153,-0.0899 1.442011,-0.17996 2.162622,-0.27033 1.381966,-1.11111 2.763612,-2.22243 4.145023,-3.33404 1.592226,2.6e-4 3.184123,2.6e-4 4.775787,0 1.021525,0.36071 2.042742,0.72114 3.063714,1.08131 1.412003,0.54093 2.823693,1.08157 4.235133,1.62197 1.68234,0.18048 3.36434,0.3607 5.04612,0.54065 1.412,0.0303 2.823694,0.0603 4.235134,0.0901 2.34315,-0.21 4.68594,-0.42025 7.02852,-0.63076 1.56219,-0.0899 3.12405,-0.17996 4.68568,-0.27033 0.57097,-0.14992 1.71208,-0.45055 1.71208,-0.45055 0,0 -2.82316,5.2266 -4.23514,7.8395 -1.38143,1.53215 -2.76308,3.06398 -4.14502,4.59557 M 87.9466,141.65169 c 2.162886,-6.00701 4.325506,-12.0143 6.487866,-18.02184 0.72115,-4.56536 1.44201,-9.13081 2.16262,-13.6966 0.601,-5.6467 1.80219,-16.940532 1.80219,-16.940532 0,0 9.611914,33.881332 14.417474,50.821592 -0.48033,0.48086 -0.9609,0.96143 -1.44175,1.44175 -6.72802,-0.24003 -13.456044,-0.48032 -20.184464,-0.72087 m -17.300973,0 c 3.724777,-13.69634 7.449293,-27.39294 11.173542,-41.08981 2.76367,-7.9295 8.290051,-23.788828 8.290051,-23.788828 0,0 -0.72061,14.417741 -1.08131,21.626208 2.6e-4,2.52337 2.6e-4,5.04638 0,7.56918 2.6e-4,2.40322 2.6e-4,4.80609 0,7.20873 0.72115,2.52338 1.44201,5.04639 2.16262,7.56918"
       d="m 91.190536,144.53519 c -0.03043,1.12621 -0.06007,2.22295 -0.0901,3.33404 m 16.129544,12.34495 c -0.84086,0.27028 -1.68188,0.54062 -2.52306,0.811 m -33.700855,-1.62197 c 1.081623,0.2704 2.162933,0.54073 3.243932,0.81098 m -0.360434,-15.679 c 1.472037,-0.0601 2.94382,-0.12016 4.10026,0.0902 1.156441,0.21035 1.997442,0.69093 3.664434,0.69081 1.666993,-1.1e-4 4.159964,-0.48069 6.652779,-0.96123 M 87.9466,141.65169 c -0.270377,0.96134 -0.540705,1.92251 1.22e-4,2.40301 0.540826,0.48049 1.892434,0.48049 3.243814,0.48049 M 69.3841,148.77032 c -0.360492,0.81111 -0.720927,1.62209 -0.946189,2.37306 -0.225262,0.75097 -0.315369,1.44179 -0.315333,2.11765 3.6e-5,0.67586 0.09014,1.33665 0.330488,2.1026 0.240346,0.76595 0.630813,1.63699 0.946237,2.23771 0.315424,0.60072 0.555709,0.93111 0.811064,1.18638 0.255356,0.25526 0.525681,0.43548 0.7957,0.61549 m 38.476643,1.71208 c -2.43268,-0.0601 -4.86562,-0.12014 -6.83305,-0.0751 -1.96742,0.045 -3.469203,0.19522 -5.331475,0.31537 -1.862271,0.12015 -4.08492,0.21026 -5.076272,0.0451 -0.991353,-0.16515 -0.751063,-0.58566 -0.630895,-1.05114 0.120168,-0.46547 0.120168,-0.97608 -0.315245,-1.2015 -0.435414,-0.22541 -1.306446,-0.16534 -2.567989,-0.10526 -1.261544,0.0601 -2.913514,0.12015 -4.535501,0.21025 -1.621987,0.0901 -3.213886,0.21025 -4.56554,0.3304 -1.351655,0.12014 -2.462979,0.24028 -3.319031,0.34541 -0.856052,0.10512 -1.456765,0.19523 -2.237743,0.37544 -0.780977,0.18022 -1.742122,0.45054 -2.448003,0.67581 -0.70588,0.22528 -1.156418,0.40549 -1.607102,0.58576 M 69.3841,148.77032 c 1.712369,0.21029 3.424442,0.42055 4.640896,0.48059 1.216454,0.06 1.937306,-0.0301 2.988497,-0.63081 1.051192,-0.60074 2.432836,-1.71206 3.91977,-2.26772 1.486935,-0.55566 3.078832,-0.55566 4.385453,-0.37538 1.306622,0.18028 2.327839,0.54071 3.544327,0.99126 1.216487,0.45056 2.628174,0.99121 4.175051,1.3516 1.546876,0.36039 3.228877,0.5406 4.775757,0.64572 1.546881,0.10511 2.958569,0.13514 4.835849,0.045 1.87728,-0.0901 4.22008,-0.30038 6.17247,-0.45056 1.95239,-0.15018 3.51424,-0.24028 4.58051,-0.36045 1.06627,-0.12016 1.63677,-0.2703 2.20746,-0.42048 -1.41171,2.61317 -2.82348,5.22643 -4.22016,7.29891 -1.39669,2.07249 -2.77834,3.60432 -4.16,5.13616 M 87.9466,141.65169 c 2.162566,-6.00713 4.325191,-12.01441 5.766955,-17.30083 1.441764,-5.28642 2.162625,-9.85187 2.823437,-14.9581 0.660812,-5.10624 1.261554,-10.753198 1.862284,-16.400042 4.805824,16.940532 9.611744,33.881382 11.774314,42.591782 2.16256,8.71041 1.68199,9.19098 -1.9223,9.31113 -3.6043,0.12015 -10.332325,-0.12014 -17.060754,-0.36044 m -17.300973,0 c 3.724465,-13.69642 7.448979,-27.39303 10.692936,-38.20622 3.243957,-10.813201 6.007307,-18.742809 8.770657,-26.672418 -0.360437,7.208736 -0.720886,14.417727 -0.901098,19.283653 -0.180212,4.865925 -0.180212,7.388935 -0.180212,9.851945 0,2.46301 0,4.86588 0.360489,7.32891 0.36049,2.46304 1.081349,4.98605 1.802131,7.50879"
       inkscape:label="sailboat-sloop" />
  </g>
</svg>
